<svg width="19" height="16" viewBox="0 0 19 16" fill="none" xmlns="http://www.w3.org/2000/svg">
<path d="M9.95151 14.922C9.5924 14.7424 9.41285 14.4731 9.41285 14.114V10.7922C9.41285 10.7922 1.60218 10.2536 1.24307 9.98422C0.794182 9.62511 0.43507 8.63755 0.43507 7.65C0.43507 6.75222 0.704403 5.58511 1.24307 5.226C1.60218 4.95666 9.41285 4.50777 9.41285 4.50777V1.186C9.41285 0.826886 9.5924 0.557552 9.95151 0.288219C10.3106 0.198441 10.6697 0.198441 10.9391 0.377997C14.62 2.89177 18.1213 6.842 18.2111 7.02155C18.3008 7.20111 18.3906 7.47044 18.3906 7.65C18.3906 7.82955 18.3008 8.09889 18.2111 8.18866C18.1213 8.36822 14.7097 12.3184 10.9391 14.8322C10.58 15.0118 10.2208 15.1016 9.95151 14.922Z" fill="white"/>
</svg>
