<svg width="23" height="20" viewBox="0 0 23 20" fill="none" xmlns="http://www.w3.org/2000/svg">
    <path
        d="M9.50102 17.7858C9.50102 18.1252 9.38987 18.457 9.18163 18.7392C8.97339 19.0215 8.67742 19.2415 8.33113 19.3713C7.98484 19.5012 7.60379 19.5352 7.23617 19.469C6.86855 19.4028 6.53088 19.2393 6.26584 18.9993C6.0008 18.7593 5.82031 18.4535 5.74718 18.1206C5.67406 17.7877 5.71159 17.4426 5.85503 17.129C5.99846 16.8154 6.24137 16.5474 6.55302 16.3588C6.86467 16.1702 7.23107 16.0695 7.60589 16.0695C8.10851 16.0695 8.59054 16.2504 8.94595 16.5722C9.30136 16.8941 9.50102 17.3306 9.50102 17.7858ZM17.4605 16.0695C17.0857 16.0695 16.7193 16.1702 16.4077 16.3588C16.096 16.5474 15.8531 16.8154 15.7097 17.129C15.5662 17.4426 15.5287 17.7877 15.6018 18.1206C15.675 18.4535 15.8555 18.7593 16.1205 18.9993C16.3855 19.2393 16.7232 19.4028 17.0908 19.469C17.4584 19.5352 17.8395 19.5012 18.1858 19.3713C18.5321 19.2415 18.828 19.0215 19.0363 18.7392C19.2445 18.457 19.3557 18.1252 19.3557 17.7858C19.3557 17.3306 19.156 16.8941 18.8006 16.5722C18.4452 16.2504 17.9632 16.0695 17.4605 16.0695ZM22.3377 5.73189L19.7518 13.3433C19.5867 13.8356 19.2507 14.2665 18.7937 14.5721C18.3368 14.8777 17.7832 15.0417 17.2151 15.0398H7.88353C7.30732 15.0381 6.74724 14.8674 6.28719 14.5532C5.82715 14.239 5.49192 13.7982 5.33174 13.297L2.09203 3.02626H1.16247C0.860895 3.02626 0.571675 2.91777 0.358432 2.72466C0.145189 2.53155 0.0253906 2.26963 0.0253906 1.99653C0.0253906 1.72343 0.145189 1.46151 0.358432 1.2684C0.571675 1.07529 0.860895 0.966797 1.16247 0.966797H2.37724C2.78881 0.967948 3.18887 1.08992 3.51741 1.31442C3.84594 1.53891 4.08524 1.85382 4.19941 2.21192L4.89018 4.39924H21.2508C21.4288 4.39923 21.6042 4.43704 21.7631 4.50963C21.922 4.58223 22.0598 4.68758 22.1655 4.81721C22.2713 4.94684 22.3419 5.09713 22.3718 5.256C22.4017 5.41486 22.39 5.57786 22.3377 5.73189ZM19.711 6.45871H5.53926L7.51872 12.7315C7.54138 12.8033 7.58926 12.8664 7.65509 12.9113C7.72092 12.9562 7.80111 12.9804 7.88353 12.9803H17.2151C17.2963 12.9805 17.3753 12.9571 17.4406 12.9135C17.5059 12.8699 17.5541 12.8086 17.578 12.7384L19.711 6.45871Z"
        fill="#FBFBFC" />
</svg>