<svg width="15" height="21" viewBox="0 0 15 21" fill="none" xmlns="http://www.w3.org/2000/svg">
<path d="M13.4216 8.06652C13.4235 7.08542 13.2023 6.11734 12.7756 5.23893C12.349 4.36051 11.7285 3.59587 10.9633 3.00552C10.1982 2.41518 9.30931 2.01535 8.36714 1.83767C7.42498 1.66 6.45537 1.70936 5.53506 1.98186C4.61475 2.25435 3.769 2.74249 3.06479 3.40765C2.36057 4.0728 1.81721 4.8967 1.47772 5.81412C1.13822 6.73154 1.01191 7.71732 1.10879 8.69338C1.20567 9.66945 1.52307 10.609 2.03588 11.4377L2.82593 12.7019L7.24936 19.4443L11.6728 12.7019L12.4628 11.4377C13.089 10.4302 13.4216 9.26076 13.4216 8.06652V8.06652Z" stroke="white" stroke-width="2" stroke-linecap="round" stroke-linejoin="round"/>
</svg>
