<svg width="26" height="26" viewBox="0 0 26 26" fill="none" xmlns="http://www.w3.org/2000/svg">
    <path
        d="M13.3018 0.34375C10.7986 0.34375 8.35164 1.08603 6.27033 2.47671C4.18902 3.8674 2.56683 5.84404 1.60891 8.15666C0.650992 10.4693 0.400356 13.014 0.8887 15.4691C1.37704 17.9242 2.58244 20.1793 4.35244 21.9493C6.12245 23.7193 8.37758 24.9247 10.8327 25.4131C13.2877 25.9014 15.8325 25.6508 18.1451 24.6929C20.4577 23.7349 22.4344 22.1127 23.8251 20.0314C25.2157 17.9501 25.958 15.5032 25.958 13C25.9543 9.6445 24.6197 6.42749 22.247 4.05479C19.8743 1.68209 16.6573 0.347472 13.3018 0.34375ZM7.62637 21.0355C8.2792 20.1429 9.13336 19.4169 10.1195 18.9164C11.1056 18.4159 12.1959 18.155 13.3018 18.155C14.4076 18.155 15.4979 18.4159 16.484 18.9164C17.4702 19.4169 18.3243 20.1429 18.9772 21.0355C17.3185 22.2119 15.3352 22.8437 13.3018 22.8437C11.2683 22.8437 9.28507 22.2119 7.62637 21.0355ZM10.0205 12.0625C10.0205 11.4135 10.213 10.7791 10.5735 10.2395C10.9341 9.69994 11.4465 9.27937 12.0461 9.03102C12.6457 8.78267 13.3054 8.71769 13.9419 8.8443C14.5784 8.97091 15.1631 9.28342 15.622 9.74231C16.0808 10.2012 16.3934 10.7859 16.52 11.4224C16.6466 12.0589 16.5816 12.7186 16.3332 13.3182C16.0849 13.9178 15.6643 14.4302 15.1247 14.7908C14.5851 15.1513 13.9507 15.3438 13.3018 15.3438C12.4315 15.3438 11.5969 14.998 10.9816 14.3827C10.3662 13.7673 10.0205 12.9327 10.0205 12.0625ZM21.0361 19.0867C20.1247 17.9274 18.9629 16.9892 17.6377 16.3422C18.4823 15.4869 19.055 14.401 19.284 13.2211C19.5129 12.0411 19.3878 10.8198 18.9243 9.71077C18.4608 8.60175 17.6797 7.65455 16.6793 6.98835C15.6789 6.32214 14.5037 5.96668 13.3018 5.96668C12.0998 5.96668 10.9247 6.32214 9.92423 6.98835C8.92378 7.65455 8.14269 8.60175 7.67923 9.71077C7.21577 10.8198 7.09063 12.0411 7.31956 13.2211C7.54849 14.401 8.12127 15.4869 8.96583 16.3422C7.64063 16.9892 6.47886 17.9274 5.56739 19.0867C4.42252 17.6354 3.70943 15.8911 3.50975 14.0534C3.31008 12.2157 3.63188 10.3589 4.43832 8.69555C5.24476 7.03223 6.50326 5.62958 8.06974 4.64818C9.63622 3.66678 11.4474 3.14629 13.2959 3.14629C15.1444 3.14629 16.9556 3.66678 18.5221 4.64818C20.0885 5.62958 21.347 7.03223 22.1535 8.69555C22.9599 10.3589 23.2817 12.2157 23.0821 14.0534C22.8824 15.8911 22.1693 17.6354 21.0244 19.0867H21.0361Z"
        fill="#FBFBFC" />
</svg>
    