<svg width="17" height="20" viewBox="0 0 17 20" fill="none" xmlns="http://www.w3.org/2000/svg">
<path fill-rule="evenodd" clip-rule="evenodd" d="M6.5437 4.21067L3.58616 0.77361C3.18406 0.35388 2.54952 0.373068 2.16889 0.816467L1.50791 1.58643L1.35137 1.77804C0.136318 3.3412 -0.181936 5.61609 0.551816 7.62287C1.63222 10.5778 2.95188 12.9617 4.51079 14.7746C6.06971 16.5875 8.11901 18.1214 10.6587 19.3764C12.4554 20.2643 14.501 19.8233 15.8443 18.2585L16.5797 17.4018C16.9459 16.9752 16.9456 16.3074 16.5791 15.8811L13.6216 12.4441C13.2195 12.0244 12.585 12.0435 12.2043 12.4869L10.8491 14.0656L10.5642 13.9445C8.01988 12.8074 6.0123 10.4026 5.1146 7.39674L6.54428 5.73132C6.91047 5.30476 6.91021 4.6369 6.5437 4.21067Z" fill="white"/>
</svg>
