<svg width="24" height="25" viewBox="0 0 24 25" fill="none" xmlns="http://www.w3.org/2000/svg">
    <path fill-rule="evenodd" clip-rule="evenodd"
        d="M14.7847 16.6991C11.6462 19.1416 7.10654 18.9205 4.22181 16.0358C1.09761 12.9116 1.09761 7.84625 4.22181 4.72205C7.346 1.59786 12.4113 1.59786 15.5355 4.72205C18.4202 7.60677 18.6414 12.1464 16.1989 15.2849L20.4853 19.5713C20.8758 19.9618 20.8758 20.595 20.4853 20.9855C20.0948 21.376 19.4616 21.376 19.0711 20.9855L14.7847 16.6991ZM5.63602 14.6215C7.97917 16.9647 11.7782 16.9647 14.1213 14.6215C16.4644 12.2784 16.4644 8.47941 14.1213 6.13627C11.7782 3.79312 7.97917 3.79312 5.63602 6.13627C3.29288 8.47941 3.29288 12.2784 5.63602 14.6215Z"
        fill="#667085" />
</svg>
    