<svg width="46" height="44" viewBox="0 0 46 44" fill="none" xmlns="http://www.w3.org/2000/svg">
    <path
        d="M37.103 31.9495C36.102 30.9986 34.5196 31.0391 33.5686 32.0401C32.6177 33.0411 32.6582 34.6235 33.6593 35.5745L37.103 31.9495ZM41.2781 42.8125C42.2791 43.7635 43.8615 43.7229 44.8125 42.7219C45.7635 41.7209 45.7229 40.1385 44.7219 39.1875L41.2781 42.8125ZM33.6593 35.5745L41.2781 42.8125L44.7219 39.1875L37.103 31.9495L33.6593 35.5745ZM20.1429 33.0714C11.9335 33.0714 5.5 26.78 5.5 19.2857H0.5C0.5 29.78 9.41681 38.0714 20.1429 38.0714V33.0714ZM34.7858 19.2857C34.7858 26.78 28.3523 33.0714 20.1429 33.0714V38.0714C30.869 38.0714 39.7858 29.78 39.7858 19.2857H34.7858ZM20.1429 5.5C28.3523 5.5 34.7858 11.7914 34.7858 19.2857H39.7858C39.7858 8.79134 30.869 0.5 20.1429 0.5V5.5ZM20.1429 0.5C9.41681 0.5 0.5 8.79134 0.5 19.2857H5.5C5.5 11.7914 11.9335 5.5 20.1429 5.5V0.5Z"
        fill="white" />
</svg>